<svg width="24" height="24" viewBox="0 0 24 24" fill="none" xmlns="http://www.w3.org/2000/svg">
<g>
<path d="M13.292 11.9998L17.2336 8.06734C17.5931 7.7079 17.5931 7.12512 17.2336 6.76568C16.8742 6.40623 16.2914 6.40623 15.932 6.76568L11.9995 10.7073L8.06696 6.76568C7.70751 6.40623 7.12473 6.40623 6.76529 6.76568C6.40584 7.12512 6.40584 7.7079 6.76529 8.06734L10.707 11.9998L6.76529 15.9323C6.59175 16.1045 6.49414 16.3388 6.49414 16.5832C6.49414 16.8276 6.59175 17.0619 6.76529 17.234C6.93741 17.4075 7.1717 17.5052 7.41612 17.5052C7.66054 17.5052 7.89484 17.4075 8.06696 17.234L11.9995 13.2923L15.932 17.234C16.1041 17.4075 16.3384 17.5052 16.5828 17.5052C16.8272 17.5052 17.0615 17.4075 17.2336 17.234C17.4072 17.0619 17.5048 16.8276 17.5048 16.5832C17.5048 16.3388 17.4072 16.1045 17.2336 15.9323L13.292 11.9998Z"/>
</g>
</svg>
